<svg xmlns="http://www.w3.org/2000/svg" version="1.1" xmlns:xlink="http://www.w3.org/1999/xlink" xmlns:svgjs="http://svgjs.dev/svgjs" viewBox="0 0 800 800"><defs><filter id="bbburst-blur-1" x="-100%" y="-100%" width="400%" height="400%"><feGaussianBlur in="SourceGraphic" stdDeviation="1"></feGaussianBlur></filter><filter id="bbburst-blur-2" x="-100%" y="-100%" width="400%" height="400%"><feGaussianBlur in="SourceGraphic" stdDeviation="2"></feGaussianBlur></filter><filter id="bbburst-blur-3" x="-100%" y="-100%" width="400%" height="400%"><feGaussianBlur in="SourceGraphic" stdDeviation="4"></feGaussianBlur></filter><filter id="bbburst-blur-4" x="-100%" y="-100%" width="400%" height="400%"><feGaussianBlur in="SourceGraphic" stdDeviation="12"></feGaussianBlur></filter><symbol id="bbburst-shape-1" viewBox="0 0 194 167"><path d="m97 0 96.129 166.5H.871L97 0Z"></path></symbol><symbol id="bbburst-shape-4" viewBox="0 0 149 143"><path d="M71.647 2.781c.898-2.764 4.808-2.764 5.706 0l15.445 47.534a3 3 0 0 0 2.853 2.073h49.98c2.906 0 4.115 3.719 1.764 5.427L106.96 87.193a2.999 2.999 0 0 0-1.09 3.354l15.445 47.534c.898 2.764-2.266 5.062-4.617 3.354l-40.435-29.378a3 3 0 0 0-3.526 0l-40.435 29.378c-2.351 1.708-5.515-.59-4.617-3.354L43.13 90.547a3 3 0 0 0-1.09-3.354L1.605 57.815c-2.35-1.708-1.142-5.427 1.764-5.427h49.98a3 3 0 0 0 2.853-2.073L71.647 2.781Z"></path></symbol><symbol id="bbburst-shape-6" viewBox="0 0 133 116"><path d="M59.7487 10.2513c-13.6683-13.66839-35.8291-13.66839-49.4974 0-13.66839 13.6683-13.66839 35.8291 0 49.4974l49.4974-49.4974ZM66.5 66.5 41.7513 91.2487 66.5 115.997l24.7487-24.7483L66.5 66.5Zm56.249-6.7513c13.668-13.6683 13.668-35.8291 0-49.4974-13.669-13.66839-35.8294-13.66839-49.4977 0l49.4977 49.4974Zm-112.4977 0 31.5 31.5 49.4974-49.4974-31.5-31.5-49.4974 49.4974Zm80.9974 31.5 31.5003-31.5-49.4977-49.4974-31.5 31.5 49.4974 49.4974Z"></path></symbol><symbol id="bbburst-shape-8" viewBox="0 0 87 168"><path d="m12 12 31.2546 18.0749c16.4102 9.4902 20.014 31.6325 7.4603 45.8369L36.3296 92.1884c-12.5684 14.2206-8.9394 36.3916 7.5068 45.8636L75 156" stroke-width="14" stroke-linecap="round" stroke-linejoin="round"></path></symbol><symbol id="bbburst-shape-10" viewBox="0 0 145 145"><circle cx="72.5" cy="72.5" r="61.5" fill="none" stroke-width="22"></circle></symbol></defs><use xlink:href="#bbburst-shape-4" width="35.91790399376686" opacity="0.30633319875998344" transform="matrix(1.0471925969658953,0.6825596419799694,-0.6825596419799694,1.0471925969658953,947.2775912278871,76.32475594426268)" fill="#00a19d" filter="url(#bbburst-blur-3)"></use><use xlink:href="#bbburst-shape-6" width="48.07216952400618" opacity="-0.09078752961822256" transform="matrix(1.3193620083624436,1.1496886060537521,-1.1496886060537521,1.3193620083624436,483.61887890300045,-504.9889037459296)" fill="#ff5c58" filter="url(#bbburst-blur-4)"></use><use xlink:href="#bbburst-shape-8" width="38.76555113868856" opacity="0.20318290049217835" transform="matrix(1.0322515988293512,-0.7049515137328581,0.7049515137328581,1.0322515988293512,454.7316203708424,37.11618845253378)" fill="none" stroke="#ffbd9b" filter="url(#bbburst-blur-3)"></use><use xlink:href="#bbburst-shape-10" width="37.49381873585034" opacity="0.43384956281959" transform="matrix(0.991932036313914,-0.12677079842823447,0.12677079842823447,0.991932036313914,583.6663580435422,35.81284380043337)" fill="none" stroke="#00a19d" filter="url(#bbburst-blur-2)"></use><use xlink:href="#bbburst-shape-1" width="23.582282344128735" opacity="0.6182988070686125" transform="matrix(0.999749381760791,0.02238690842694259,-0.02238690842694259,0.999749381760791,243.69335560208796,77.00018149466251)" fill="#2c2891" filter="url(#bbburst-blur-1)"></use><use xlink:href="#bbburst-shape-6" width="17.93465523634944" opacity="0.7476834950469751" transform="matrix(0.7713327203232708,0.6364321130793943,-0.6364321130793943,0.7713327203232708,672.8736679409536,-24.946603461075085)" fill="#00a19d" filter="url(#bbburst-blur-1)"></use><use xlink:href="#bbburst-shape-4" width="20.16916785741881" opacity="0.6356519560436662" transform="matrix(0.9594714380546379,0.2818058898557041,-0.2818058898557041,0.9594714380546379,650.1344271830488,-59.037911616800784)" fill="#2c2891" filter="url(#bbburst-blur-1)"></use><use xlink:href="#bbburst-shape-4" width="35.03223561857386" opacity="0.13552833972729317" transform="matrix(1.2398870034834006,0.15868276085622457,-0.15868276085622457,1.2398870034834006,75.14429156348305,31.42345573834166)" fill="#ff5c58" filter="url(#bbburst-blur-3)"></use><use xlink:href="#bbburst-shape-8" width="33.88449737301554" opacity="0.5458813773560413" transform="matrix(0.9818129427696884,0.18985085043244987,-0.18985085043244987,0.9818129427696884,660.3423948522196,-32.612688643862896)" fill="none" stroke="#ffa6d5" filter="url(#bbburst-blur-2)"></use><use xlink:href="#bbburst-shape-6" width="35.24918803464449" opacity="0.28916210626243644" transform="matrix(1.1975779752349593,0.35819965554441147,-0.35819965554441147,1.1975779752349593,210.23337084687228,-14.5267355398787)" fill="#2c2891" filter="url(#bbburst-blur-3)"></use><use xlink:href="#bbburst-shape-1" width="22.735439624966972" opacity="0.7201358045254873" transform="matrix(0.999825038090176,0.01870543257928465,-0.01870543257928465,0.999825038090176,473.2454157244321,-99.67058383260098)" fill="#ffbd9b" filter="url(#bbburst-blur-1)"></use><use xlink:href="#bbburst-shape-10" width="37.28897428015768" opacity="0.4006039673550461" transform="matrix(0.940852576511123,-0.33881621754629976,0.33881621754629976,0.940852576511123,435.80150424069916,222.5417319079774)" fill="none" stroke="#ffa6d5" filter="url(#bbburst-blur-2)"></use><use xlink:href="#bbburst-shape-8" width="18.452340390301366" opacity="0.8205996999819368" transform="matrix(0.9746671933716629,0.22366014880842203,-0.22366014880842203,0.9746671933716629,406.0538455502199,39.36417121175464)" fill="none" stroke="#00a19d"></use><use xlink:href="#bbburst-shape-6" width="14.67765189208611" opacity="0.8552840519294458" transform="matrix(0.9328753131575327,0.3601994587742122,-0.3601994587742122,0.9328753131575327,547.4116709060751,88.52845995768126)" fill="#2c2891"></use><use xlink:href="#bbburst-shape-8" width="15.107671843480919" opacity="0.8174730911667171" transform="matrix(0.9651856775798575,-0.26156568543046954,0.26156568543046954,0.9651856775798575,282.11889681969245,-66.01874748078512)" fill="none" stroke="#2c2891"></use><use xlink:href="#bbburst-shape-1" width="25.467231202648225" opacity="0.542212019587374" transform="matrix(0.9989231594755816,-0.04639527414857696,0.04639527414857696,0.9989231594755816,311.74284789086954,-196.9130932323895)" fill="#ffbd9b" filter="url(#bbburst-blur-2)"></use><use xlink:href="#bbburst-shape-10" width="37.867813307098594" opacity="0.35450334228681313" transform="matrix(0.8221794481583917,-0.5692283856467125,0.5692283856467125,0.8221794481583917,209.1047683140038,367.6207257990742)" fill="none" stroke="#ff5c58" filter="url(#bbburst-blur-2)"></use><use xlink:href="#bbburst-shape-4" width="37.01603218296508" opacity="0.19445956643820006" transform="matrix(1.0147120533012592,-0.7299722247353952,0.7299722247353952,1.0147120533012592,103.61372713171659,369.868378914484)" fill="#2c2891" filter="url(#bbburst-blur-3)"></use><use xlink:href="#bbburst-shape-1" width="29.325226969569435" opacity="0.46532667735573274" transform="matrix(0.8094432800360342,0.5871980725483577,-0.5871980725483577,0.8094432800360342,745.1549369106611,-139.63696278427355)" fill="#ffbd9b" filter="url(#bbburst-blur-2)"></use><use xlink:href="#bbburst-shape-10" width="28.611393570185903" opacity="0.6430207033593676" transform="matrix(0.7666009500856865,0.64212380685326,-0.64212380685326,0.7666009500856865,546.437254824086,210.33228278855069)" fill="none" stroke="#2c2891" filter="url(#bbburst-blur-1)"></use><use xlink:href="#bbburst-shape-1" width="39.68182817280113" opacity="-0.07744163899883794" transform="matrix(1.3961842854136077,-1.055068453307222,1.055068453307222,1.3961842854136077,303.12860887138174,195.10890890440066)" fill="#ffbd9b" filter="url(#bbburst-blur-4)"></use><use xlink:href="#bbburst-shape-4" width="30.864994064947275" opacity="0.5070473368833686" transform="matrix(0.9627743733585621,0.2703063188385136,-0.2703063188385136,0.9627743733585621,276.8071303193825,-37.80808005797172)" fill="#ffa6d5" filter="url(#bbburst-blur-2)"></use><use xlink:href="#bbburst-shape-10" width="20.68779611739597" opacity="0.4690450503316572" transform="matrix(0.9542488080843776,0.299013732576858,-0.299013732576858,0.9542488080843776,465.01366647212825,249.91462712693016)" fill="none" stroke="#00a19d" filter="url(#bbburst-blur-2)"></use><use xlink:href="#bbburst-shape-6" width="33.58293851320119" opacity="0.46217487504746346" transform="matrix(0.8735743177213455,-0.4866907759734981,0.4866907759734981,0.8735743177213455,392.10628793530395,-75.39066666602474)" fill="#ffa6d5" filter="url(#bbburst-blur-2)"></use><use xlink:href="#bbburst-shape-4" width="16.834680833808136" opacity="0.861886505071547" transform="matrix(0.8345705842396174,0.5509010255226829,-0.5509010255226829,0.8345705842396174,666.9987960694682,30.20883577151625)" fill="#2c2891"></use><use xlink:href="#bbburst-shape-10" width="17.15489899402141" opacity="0.7623168666020499" transform="matrix(0.8969607868141461,0.4421101072331958,-0.4421101072331958,0.8969607868141461,663.6672444524488,-12.640973194593812)" fill="none" stroke="#00a19d" filter="url(#bbburst-blur-1)"></use><use xlink:href="#bbburst-shape-6" width="32.59253298133368" opacity="0.16187863275451075" transform="matrix(0.8932274286787824,0.8744396838295314,-0.8744396838295314,0.8932274286787824,861.7088532566472,-326.851866444294)" fill="#00a19d" filter="url(#bbburst-blur-3)"></use><use xlink:href="#bbburst-shape-10" width="31.752957604403196" opacity="0.08018589279649135" transform="matrix(1.2997575912324792,1.17180638504556,-1.17180638504556,1.2997575912324792,639.4257397756726,218.96617160962444)" fill="none" stroke="#00a19d" filter="url(#bbburst-blur-4)"></use><use xlink:href="#bbburst-shape-10" width="26.58689708712661" opacity="0.6165609060030761" transform="matrix(0.8773278441615926,0.4798915021739522,-0.4798915021739522,0.8773278441615926,484.1909283220617,-100.61752939859423)" fill="none" stroke="#ff5c58" filter="url(#bbburst-blur-1)"></use><use xlink:href="#bbburst-shape-10" width="43.59059905454514" opacity="0.2835958205275628" transform="matrix(0.9787367451612248,0.7775438146311832,-0.7775438146311832,0.9787367451612248,379.46583289321416,-96.15539518016249)" fill="none" stroke="#00a19d" filter="url(#bbburst-blur-3)"></use><use xlink:href="#bbburst-shape-6" width="41.80959529444152" opacity="0.1751178316325982" transform="matrix(1.0993811921572703,0.5948621641446521,-0.5948621641446521,1.0993811921572703,497.6427821510748,-404.35690786536054)" fill="#ffbd9b" filter="url(#bbburst-blur-3)"></use><use xlink:href="#bbburst-shape-8" width="24.017464589580083" opacity="0.6063277534960878" transform="matrix(0.9570544210232487,-0.2899083220603616,0.2899083220603616,0.9570544210232487,445.34942074610404,59.66199600917406)" fill="none" stroke="#ffbd9b" filter="url(#bbburst-blur-1)"></use><use xlink:href="#bbburst-shape-10" width="25.682104721697698" opacity="0.6449599957318145" transform="matrix(0.9797907250003877,0.20002533640320347,-0.20002533640320347,0.9797907250003877,311.5291707573413,-29.43028550104509)" fill="none" stroke="#ffa6d5" filter="url(#bbburst-blur-1)"></use><use xlink:href="#bbburst-shape-4" width="31.471727650050134" opacity="0.13089710924314646" transform="matrix(1.0693826653309033,0.6472408478223335,-0.6472408478223335,1.0693826653309033,281.3122813612913,-188.9852773989859)" fill="#ffa6d5" filter="url(#bbburst-blur-3)"></use><use xlink:href="#bbburst-shape-10" width="35.63141374687733" opacity="0.48800573355971655" transform="matrix(0.7207337141640655,0.6932120261992509,-0.6932120261992509,0.7207337141640655,866.8604773521531,209.4051482353401)" fill="none" stroke="#ffa6d5" filter="url(#bbburst-blur-2)"></use><use xlink:href="#bbburst-shape-4" width="13.008887747598498" opacity="0.8591560586026087" transform="matrix(0.9273474297605401,-0.37420147583423585,0.37420147583423585,0.9273474297605401,301.7236647990711,58.312521772073524)" fill="#00a19d"></use><use xlink:href="#bbburst-shape-8" width="16.07539919177689" opacity="0.7334459499206825" transform="matrix(0.740436151190973,-0.6721267038360391,0.6721267038360391,0.740436151190973,74.22235633062593,217.8065912598633)" fill="none" stroke="#ffa6d5" filter="url(#bbburst-blur-1)"></use><use xlink:href="#bbburst-shape-6" width="17.24527261451114" opacity="0.7387844644799724" transform="matrix(0.7287310171577054,-0.6848000471906351,0.6848000471906351,0.7287310171577054,25.472524383668144,184.5571965354394)" fill="#ffa6d5" filter="url(#bbburst-blur-1)"></use><use xlink:href="#bbburst-shape-6" width="32.67894794994922" opacity="0.6173236229482593" transform="matrix(0.9058407175756275,0.4236184537789546,-0.4236184537789546,0.9058407175756275,606.6202192191149,-133.43149251446363)" fill="#00a19d" filter="url(#bbburst-blur-1)"></use><use xlink:href="#bbburst-shape-6" width="24.185179889700052" opacity="0.5253713465662018" transform="matrix(0.753789346645318,-0.6571161395704905,0.6571161395704905,0.753789346645318,-34.115363201109886,245.44074299572657)" fill="#ffbd9b" filter="url(#bbburst-blur-2)"></use><use xlink:href="#bbburst-shape-4" width="33.33401179065463" opacity="0.05737542325128697" transform="matrix(1.6499668887476353,0.5831888768113194,-0.5831888768113194,1.6499668887476353,371.7715174911919,-623.4646866987262)" fill="#00a19d" filter="url(#bbburst-blur-4)"></use><use xlink:href="#bbburst-shape-4" width="11.57228822250648" opacity="0.9691409565172486" transform="matrix(0.7504672541163183,0.6609076338635477,-0.6609076338635477,0.7504672541163183,665.6116747522842,83.28855774593336)" fill="#00a19d"></use><use xlink:href="#bbburst-shape-4" width="38.77296573233028" opacity="0.14573934122983145" transform="matrix(1.2493360561327678,-0.04073596502627715,0.04073596502627715,1.2493360561327678,629.512849260747,174.7095394962593)" fill="#ff5c58" filter="url(#bbburst-blur-3)"></use><use xlink:href="#bbburst-shape-4" width="9.376730756668586" opacity="0.8927908028434028" transform="matrix(0.9089791958802861,0.41684148240887514,-0.41684148240887514,0.9089791958802861,588.2117595746822,75.2653165999792)" fill="#ffa6d5"></use><use xlink:href="#bbburst-shape-10" width="21.59650256305985" opacity="0.5940729773601046" transform="matrix(0.7780213651522767,-0.6282378175234181,0.6282378175234181,0.7780213651522767,264.4395585067202,-38.43048475210992)" fill="none" stroke="#ffbd9b" filter="url(#bbburst-blur-1)"></use><use xlink:href="#bbburst-shape-4" width="32.041814690990336" opacity="0.4348279015792905" transform="matrix(0.780613727399225,-0.6250137667250926,0.6250137667250926,0.780613727399225,-96.1536711129666,198.21650189748783)" fill="#ffa6d5" filter="url(#bbburst-blur-2)"></use><use xlink:href="#bbburst-shape-4" width="39.61232813388737" opacity="0.2845703537767482" transform="matrix(1.249490435647008,-0.035688250540624675,0.035688250540624675,1.249490435647008,567.2810999849387,-346.2015602711816)" fill="#ffa6d5" filter="url(#bbburst-blur-3)"></use><use xlink:href="#bbburst-shape-4" width="26.11180615874177" opacity="0.7018392527401409" transform="matrix(0.965907792074278,0.2588863403314153,-0.2588863403314153,0.965907792074278,383.81349616251634,-70.50792660156299)" fill="#00a19d" filter="url(#bbburst-blur-1)"></use><use xlink:href="#bbburst-shape-10" width="47.77438616900881" opacity="0.030909862139053224" transform="matrix(1.4441432390070479,0.9884079649771305,-0.9884079649771305,1.4441432390070479,404.39341969426323,49.93319094688297)" fill="none" stroke="#2c2891" filter="url(#bbburst-blur-4)"></use><use xlink:href="#bbburst-shape-6" width="30.078945843740154" opacity="0.27813436335283714" transform="matrix(1.2120105764461035,0.3058273411302256,-0.3058273411302256,1.2120105764461035,783.9073439502738,-254.41893989708512)" fill="#00a19d" filter="url(#bbburst-blur-3)"></use><use xlink:href="#bbburst-shape-6" width="27.333564659467235" opacity="0.4381621032413069" transform="matrix(0.7816925084333255,0.6236640299546026,-0.6236640299546026,0.7816925084333255,490.21607386645996,-125.77205566526524)" fill="#ffa6d5" filter="url(#bbburst-blur-2)"></use><use xlink:href="#bbburst-shape-8" width="16.72439143216199" opacity="0.8140858811025994" transform="matrix(0.9976187169898907,-0.06897025091620591,0.06897025091620591,0.9976187169898907,447.70241829307133,-0.656276184136118)" fill="none" stroke="#ffbd9b"></use><use xlink:href="#bbburst-shape-6" width="20.65028490696244" opacity="0.7107527891634993" transform="matrix(0.951670384091081,-0.307121279047764,0.307121279047764,0.951670384091081,139.0959252276344,44.844673657481394)" fill="#00a19d" filter="url(#bbburst-blur-1)"></use><use xlink:href="#bbburst-shape-1" width="28.005103687467354" opacity="0.3894780237742894" transform="matrix(0.9320046246736372,0.362446381671762,-0.362446381671762,0.9320046246736372,257.20046432033945,18.81492184483386)" fill="#2c2891" filter="url(#bbburst-blur-2)"></use><use xlink:href="#bbburst-shape-4" width="23.857704978752388" opacity="0.3264398213633344" transform="matrix(1.2189031525728993,-0.27708320888831867,0.27708320888831867,1.2189031525728993,224.19724357197427,214.646923493411)" fill="#2c2891" filter="url(#bbburst-blur-3)"></use><use xlink:href="#bbburst-shape-10" width="17.98141866037741" opacity="0.8330416604198947" transform="matrix(0.914747185382231,0.4040267154969908,-0.4040267154969908,0.914747185382231,478.47508531076704,24.724781779398597)" fill="none" stroke="#ffa6d5"></use><use xlink:href="#bbburst-shape-6" width="29.8936139409399" opacity="0.4664675651688416" transform="matrix(0.980569555383794,-0.19617172847897502,0.19617172847897502,0.980569555383794,406.9770504540165,228.9306577890775)" fill="#2c2891" filter="url(#bbburst-blur-2)"></use><use xlink:href="#bbburst-shape-1" width="27.74699770185937" opacity="0.42417470809638913" transform="matrix(0.9810491635214216,0.19375897077017915,-0.19375897077017915,0.9810491635214216,235.28004415067895,-117.06930388517901)" fill="#ffa6d5" filter="url(#bbburst-blur-2)"></use><use xlink:href="#bbburst-shape-6" width="14.732028484547094" opacity="0.8280084170077016" transform="matrix(0.9967314533327513,0.08078619892767296,-0.08078619892767296,0.9967314533327513,378.22735573462796,62.39770363933536)" fill="#2c2891"></use><use xlink:href="#bbburst-shape-10" width="36.915610179622185" opacity="0.2840878833621143" transform="matrix(1.073891354839618,-0.6397322549322721,0.6397322549322721,1.073891354839618,288.1395276049181,259.63063187575636)" fill="none" stroke="#ffa6d5" filter="url(#bbburst-blur-3)"></use><use xlink:href="#bbburst-shape-10" width="46.46833776909983" opacity="0.07443351423512035" transform="matrix(1.537269094072731,-0.8362438235400039,0.8362438235400039,1.537269094072731,267.4139325421834,-537.5439628766777)" fill="none" stroke="#ff5c58" filter="url(#bbburst-blur-4)"></use><use xlink:href="#bbburst-shape-4" width="13.537278283981273" opacity="0.9015778231313961" transform="matrix(0.9830072077528916,-0.18356696191271304,0.18356696191271304,0.9830072077528916,277.441835739686,20.58374347953128)" fill="#2c2891"></use><use xlink:href="#bbburst-shape-6" width="19.518220380338313" opacity="0.818660695545557" transform="matrix(0.9693521755656415,-0.24567531362788123,0.24567531362788123,0.9693521755656415,226.9353345704555,-34.234701319143085)" fill="#00a19d"></use><use xlink:href="#bbburst-shape-6" width="28.27262438323052" opacity="0.6495833325518363" transform="matrix(0.7261373106005022,-0.6875497117691707,0.6875497117691707,0.7261373106005022,245.26259196570038,207.711218087048)" fill="#ffa6d5" filter="url(#bbburst-blur-1)"></use><use xlink:href="#bbburst-shape-6" width="30.375522468707196" opacity="0.2585130732169346" transform="matrix(1.1886821085885995,-0.3866973554620731,0.3866973554620731,1.1886821085885995,499.79627370926875,122.91891406258435)" fill="#00a19d" filter="url(#bbburst-blur-3)"></use><use xlink:href="#bbburst-shape-10" width="13.777770125759686" opacity="0.8000345382576339" transform="matrix(0.8076456104601293,-0.5896681845788232,0.5896681845788232,0.8076456104601293,144.32643629004338,169.85408636875746)" fill="none" stroke="#ffbd9b"></use><use xlink:href="#bbburst-shape-6" width="24.254912606426643" opacity="0.6298403697454045" transform="matrix(0.9503854732501418,0.31107467308526443,-0.31107467308526443,0.9503854732501418,567.744059613341,173.35908359531675)" fill="#ffbd9b" filter="url(#bbburst-blur-1)"></use><use xlink:href="#bbburst-shape-6" width="37.23422951358193" opacity="0.21420605177206853" transform="matrix(1.2049094706013703,-0.3327058275040059,0.3327058275040059,1.2049094706013703,245.16300988159367,-429.37587907255084)" fill="#ffbd9b" filter="url(#bbburst-blur-3)"></use><use xlink:href="#bbburst-shape-4" width="24.761413423181388" opacity="0.6871165777913124" transform="matrix(0.7686324246520068,0.6396907032102134,-0.6396907032102134,0.7686324246520068,644.6167883695808,225.43136141477396)" fill="#00a19d" filter="url(#bbburst-blur-1)"></use><use xlink:href="#bbburst-shape-8" width="31.954397625695478" opacity="0.5510199236569286" transform="matrix(0.7099206627553555,0.7042816571464835,-0.7042816571464835,0.7099206627553555,470.2790808782363,132.78198227973832)" fill="none" stroke="#ffa6d5" filter="url(#bbburst-blur-2)"></use><use xlink:href="#bbburst-shape-10" width="29.553134163289002" opacity="0.09655117230559618" transform="matrix(1.6777911665034255,-0.49751060451318474,0.49751060451318474,1.6777911665034255,537.9505419418045,-78.22851738428233)" fill="none" stroke="#00a19d" filter="url(#bbburst-blur-4)"></use><use xlink:href="#bbburst-shape-1" width="29.674526445192868" opacity="0.5300440041636243" transform="matrix(0.9990764750487546,-0.042967394663338404,0.042967394663338404,0.9990764750487546,388.0367752412227,211.57314912430712)" fill="#ffa6d5" filter="url(#bbburst-blur-2)"></use><use xlink:href="#bbburst-shape-10" width="14.435205118397702" opacity="0.9168358381746834" transform="matrix(0.993624694137849,0.11273849031925998,-0.11273849031925998,0.993624694137849,406.36394975857627,-18.376314290891855)" fill="none" stroke="#00a19d"></use><use xlink:href="#bbburst-shape-8" width="31.706024623988" opacity="0.2816606568831409" transform="matrix(1.2356483240565526,0.18887355361784416,-0.18887355361784416,1.2356483240565526,197.97885603296766,-292.0295516780594)" fill="none" stroke="#00a19d" filter="url(#bbburst-blur-3)"></use><use xlink:href="#bbburst-shape-4" width="30.600233201502746" opacity="0.5673256132204784" transform="matrix(0.7985976585269179,-0.6018652505298211,0.6018652505298211,0.7985976585269179,271.71444281442353,239.3534544616378)" fill="#ffbd9b" filter="url(#bbburst-blur-1)"></use><use xlink:href="#bbburst-shape-4" width="32.38485968798753" opacity="0.36851843380089666" transform="matrix(0.9640631441274768,-0.2656732092911211,0.2656732092911211,0.9640631441274768,71.64384864988753,213.9356955545506)" fill="#2c2891" filter="url(#bbburst-blur-2)"></use><use xlink:href="#bbburst-shape-10" width="27.251476930270265" opacity="0.4812745038719852" transform="matrix(0.9691056437417004,-0.24664600395705683,0.24664600395705683,0.9691056437417004,306.03074094228475,-217.02113372539264)" fill="none" stroke="#2c2891" filter="url(#bbburst-blur-2)"></use><use xlink:href="#bbburst-shape-10" width="15.292010049493523" opacity="0.8074199439537619" transform="matrix(0.8791012396514309,0.47663509149381494,-0.47663509149381494,0.8791012396514309,640.8185759449857,110.0917367151306)" fill="none" stroke="#ffbd9b"></use><use xlink:href="#bbburst-shape-1" width="40.72767594831457" opacity="-0.08525514259800038" transform="matrix(1.7136304325683156,-0.3549235700481551,0.3549235700481551,1.7136304325683156,-113.50049483678471,75.65137163415045)" fill="#ffa6d5" filter="url(#bbburst-blur-4)"></use><use xlink:href="#bbburst-shape-6" width="41.740632990454586" opacity="0.24692452273357124" transform="matrix(1.2318069815377644,-0.21248896497188266,0.21248896497188266,1.2318069815377644,88.9733478976102,-361.6243590031051)" fill="#ffa6d5" filter="url(#bbburst-blur-3)"></use><use xlink:href="#bbburst-shape-4" width="12.31180496883558" opacity="0.8688053575970406" transform="matrix(0.7396355081803495,0.6730076634324428,-0.6730076634324428,0.7396355081803495,637.5892564176352,47.53667170521919)" fill="#ff5c58"></use><use xlink:href="#bbburst-shape-6" width="13.334874870227335" opacity="0.9021063981938353" transform="matrix(0.8679297742423503,0.496686930554472,-0.496686930554472,0.8679297742423503,575.0295182863969,89.78654212966501)" fill="#00a19d"></use><use xlink:href="#bbburst-shape-10" width="31.734711273082333" opacity="0.1588292960767036" transform="matrix(0.9908093967056968,0.762100216113139,-0.762100216113139,0.9908093967056968,813.048782041017,349.2481775193138)" fill="none" stroke="#ffa6d5" filter="url(#bbburst-blur-3)"></use><use xlink:href="#bbburst-shape-10" width="45.77637382309773" opacity="0.163182123827606" transform="matrix(1.2499145774837495,-0.014613315627194024,0.014613315627194024,1.2499145774837495,110.6220565275673,177.52757342150824)" fill="none" stroke="#00a19d" filter="url(#bbburst-blur-3)"></use><use xlink:href="#bbburst-shape-10" width="25.267413439933797" opacity="0.7021595434529988" transform="matrix(0.8342272993292584,0.5514207223652479,-0.5514207223652479,0.8342272993292584,743.8562956052322,52.008285010806276)" fill="none" stroke="#ffa6d5" filter="url(#bbburst-blur-1)"></use><use xlink:href="#bbburst-shape-10" width="37.00688227410368" opacity="0.04110534288287215" transform="matrix(1.5765043038148427,-0.7596934776956283,0.7596934776956283,1.5765043038148427,305.7569554278699,142.85282457871995)" fill="none" stroke="#ffa6d5" filter="url(#bbburst-blur-4)"></use><use xlink:href="#bbburst-shape-6" width="31.956335714066384" opacity="0.49294332893001636" transform="matrix(0.9944332083485988,0.10536884802213704,-0.10536884802213704,0.9944332083485988,312.5385150765537,198.36126222501707)" fill="#ffa6d5" filter="url(#bbburst-blur-2)"></use><use xlink:href="#bbburst-shape-10" width="34.220447734984575" opacity="0.17290036932919794" transform="matrix(1.233773267084963,-0.2007573795069469,0.2007573795069469,1.233773267084963,658.6111288003663,-184.4753433640828)" fill="none" stroke="#00a19d" filter="url(#bbburst-blur-3)"></use><use xlink:href="#bbburst-shape-4" width="18.854466394959537" opacity="0.6715188473789653" transform="matrix(0.9999236878296056,0.01235388672610343,-0.01235388672610343,0.9999236878296056,378.21069693751315,-146.86899359964488)" fill="#ffa6d5" filter="url(#bbburst-blur-1)"></use><use xlink:href="#bbburst-shape-8" width="18.527784954374845" opacity="0.8276057685912016" transform="matrix(0.9946962787432915,-0.10285578765557275,0.10285578765557275,0.9946962787432915,390.64562705107596,-62.78181362656437)" fill="none" stroke="#00a19d"></use><use xlink:href="#bbburst-shape-4" width="11.760146638226386" opacity="0.9650544923951436" transform="matrix(0.9996806119752116,-0.02527200112508566,0.02527200112508566,0.9996806119752116,370.89979795451774,8.96618286388923)" fill="#00a19d"></use><use xlink:href="#bbburst-shape-6" width="19.55712249950468" opacity="0.7096351531189306" transform="matrix(0.7111306172879247,0.7030599157651467,-0.7030599157651467,0.7111306172879247,751.1002026725614,214.36236709038064)" fill="#ffa6d5" filter="url(#bbburst-blur-1)"></use><use xlink:href="#bbburst-shape-10" width="35.10962708930127" opacity="0.3661379896624666" transform="matrix(0.9767237328471932,-0.21450116478249004,0.21450116478249004,0.9767237328471932,576.8545770979657,-42.34891746986949)" fill="none" stroke="#00a19d" filter="url(#bbburst-blur-2)"></use><use xlink:href="#bbburst-shape-8" width="30.229370675045125" opacity="0.16733887311497342" transform="matrix(1.2395259204572202,0.16147907763757172,-0.16147907763757172,1.2395259204572202,345.5136885070036,262.76075245829094)" fill="none" stroke="#ffbd9b" filter="url(#bbburst-blur-3)"></use><use xlink:href="#bbburst-shape-4" width="24.15077915324305" opacity="0.6113724439617906" transform="matrix(0.7504069816354738,0.6609760675794076,-0.6609760675794076,0.7504069816354738,607.8798422680456,260.1986118555597)" fill="#ffa6d5" filter="url(#bbburst-blur-1)"></use><use xlink:href="#bbburst-shape-1" width="34.32802812593943" opacity="0.5607955328271963" transform="matrix(0.9432669307133866,-0.33203538579878367,0.33203538579878367,0.9432669307133866,90.76096493427676,-87.24882679434018)" fill="#ff5c58" filter="url(#bbburst-blur-1)"></use><use xlink:href="#bbburst-shape-8" width="31.789063806041337" opacity="0.060787753291702495" transform="matrix(1.5854682738465173,0.7408038557041566,-0.7408038557041566,1.5854682738465173,333.29038964837525,-499.92960216388246)" fill="none" stroke="#ffbd9b" filter="url(#bbburst-blur-4)"></use><use xlink:href="#bbburst-shape-4" width="35.49135199673286" opacity="0.18850904050690986" transform="matrix(1.160510544125447,-0.46445158733032543,0.46445158733032543,1.160510544125447,-171.4039106234895,-65.54702901508773)" fill="#ff5c58" filter="url(#bbburst-blur-3)"></use><use xlink:href="#bbburst-shape-10" width="16.190766662890578" opacity="0.7538470172131436" transform="matrix(0.9797029407133052,0.2004548526668836,-0.2004548526668836,0.9797029407133052,365.1248090738338,-21.677387216366355)" fill="none" stroke="#00a19d" filter="url(#bbburst-blur-1)"></use><use xlink:href="#bbburst-shape-8" width="30.1842285904121" opacity="0.24057277305709224" transform="matrix(1.026898323263096,0.7127270400927989,-0.7127270400927989,1.026898323263096,378.26927867386496,157.14136721590904)" fill="none" stroke="#ffbd9b" filter="url(#bbburst-blur-3)"></use><use xlink:href="#bbburst-shape-10" width="44.95256344430957" opacity="0.31146585940672644" transform="matrix(1.2322345255781881,0.20999541417158982,-0.20999541417158982,1.2322345255781881,307.81227915415707,174.3271322160919)" fill="none" stroke="#00a19d" filter="url(#bbburst-blur-3)"></use><use xlink:href="#bbburst-shape-10" width="35.603639184868904" opacity="0.3717765590452601" transform="matrix(0.9365504494138923,0.3505328168697423,-0.3505328168697423,0.9365504494138923,455.6818299622548,-255.2956431410529)" fill="none" stroke="#ffa6d5" filter="url(#bbburst-blur-2)"></use><use xlink:href="#bbburst-shape-4" width="35.940061418155835" opacity="0.34157797465668227" transform="matrix(0.9929369033616464,0.11864360894116666,-0.11864360894116666,0.9929369033616464,509.7498009477588,-284.52059647265054)" fill="#ff5c58" filter="url(#bbburst-blur-2)"></use><use xlink:href="#bbburst-shape-6" width="53.82559524150448" opacity="-0.08014789679011924" transform="matrix(1.7451538203638142,0.1301466221981349,-0.1301466221981349,1.7451538203638142,749.7042506132639,-644.3499301027589)" fill="#ffa6d5" filter="url(#bbburst-blur-4)"></use><use xlink:href="#bbburst-shape-6" width="10.038147197291128" opacity="0.9147653897612551" transform="matrix(0.9217262616271499,0.38784107392956574,-0.38784107392956574,0.9217262616271499,588.7223847786163,26.049807811947574)" fill="#2c2891"></use><use xlink:href="#bbburst-shape-10" width="25.836859168879798" opacity="0.7529048239876693" transform="matrix(0.8529495419018511,-0.5219933706182698,0.5219933706182698,0.8529495419018511,128.2339549348198,-32.747486675196626)" fill="none" stroke="#00a19d" filter="url(#bbburst-blur-1)"></use><use xlink:href="#bbburst-shape-4" width="22.225656011540007" opacity="0.7529083956709047" transform="matrix(0.9738284222337416,0.2272844122454103,-0.2272844122454103,0.9738284222337416,582.4061752011404,51.48614529761886)" fill="#ffa6d5" filter="url(#bbburst-blur-1)"></use><use xlink:href="#bbburst-shape-10" width="11.452126122504962" opacity="0.9061877449357582" transform="matrix(0.906801032382243,-0.4215588780591607,0.4215588780591607,0.906801032382243,237.32547175916844,-1.0252999198715997)" fill="none" stroke="#ffa6d5"></use><use xlink:href="#bbburst-shape-4" width="11.05458240286394" opacity="0.9502970350490021" transform="matrix(0.996347908177232,0.0853864501595789,-0.0853864501595789,0.996347908177232,442.50280520255365,18.55617550527961)" fill="#ffbd9b"></use><use xlink:href="#bbburst-shape-1" width="42.25001217877438" opacity="0.07689783776802905" transform="matrix(1.3590106827737864,-1.102537964927615,1.102537964927615,1.3590106827737864,276.18494890807636,-350.3307438244474)" fill="#ffbd9b" filter="url(#bbburst-blur-4)"></use><use xlink:href="#bbburst-shape-10" width="17.895981136086128" opacity="0.7634605864038427" transform="matrix(0.8971569639666875,0.44171187668668777,-0.44171187668668777,0.8971569639666875,596.9503324872876,139.79834374207667)" fill="none" stroke="#ffbd9b" filter="url(#bbburst-blur-1)"></use></svg>